<?xml version="1.0" encoding="UTF-8"?>
<svg version="1.1" xmlns="http://www.w3.org/2000/svg" width="500" height="230">
<path d="M0 0 C165 0 330 0 500 0 C500 75.9 500 151.8 500 230 C335 230 170 230 0 230 C0 154.1 0 78.2 0 0 Z " fill="#FEFEFE" transform="translate(0,0)"/>
<path d="M0 0 C1.48831242 0.00667405 2.97660807 0.01863442 4.46484375 0.03515625 C5.22345703 0.03966797 5.98207031 0.04417969 6.76367188 0.04882812 C8.64326246 0.06064945 10.52281274 0.07858547 12.40234375 0.09765625 C16.33412039 7.52987538 19.38269818 15.29308232 22.48046875 23.09765625 C22.99236119 24.38033393 23.50456751 25.66288638 24.01708984 26.9453125 C25.89929818 31.66124938 27.77546739 36.37959478 29.65234375 41.09765625 C33.85984375 51.65765625 38.06734375 62.21765625 42.40234375 73.09765625 C42.73234375 49.00765625 43.06234375 24.91765625 43.40234375 0.09765625 C49.01234375 0.09765625 54.62234375 0.09765625 60.40234375 0.09765625 C60.40234375 25.17765625 60.40234375 50.25765625 60.40234375 76.09765625 C48.52234375 76.09765625 36.64234375 76.09765625 24.40234375 76.09765625 C19.40234375 63.09765625 19.40234375 63.09765625 19.40234375 61.09765625 C9.50234375 61.09765625 -0.39765625 61.09765625 -10.59765625 61.09765625 C-10.92765625 62.74765625 -11.25765625 64.39765625 -11.59765625 66.09765625 C-12.82661994 69.47854029 -14.22289431 72.7716193 -15.59765625 76.09765625 C-21.53765625 76.09765625 -27.47765625 76.09765625 -33.59765625 76.09765625 C-32.9351425 72.7850875 -32.42109432 70.3449927 -31.20581055 67.33422852 C-30.92387848 66.62959473 -30.64194641 65.92496094 -30.35147095 65.19897461 C-30.04470428 64.44495361 -29.73793762 63.69093262 -29.421875 62.9140625 C-28.93948868 61.71330078 -28.93948868 61.71330078 -28.44735718 60.48828125 C-27.39736578 57.87724375 -26.3413544 55.26868848 -25.28515625 52.66015625 C-24.56071078 50.86271231 -23.83667391 49.06510364 -23.11303711 47.26733398 C-22.01362067 44.53654615 -20.91374846 41.80594848 -19.81208801 39.07606506 C-17.49300097 33.32907396 -15.18986015 27.57603221 -12.90234375 21.81640625 C-12.34546868 20.41593039 -11.78858422 19.01545826 -11.23168945 17.61499023 C-10.44960771 15.64785613 -9.66819794 13.68047003 -8.88900757 11.71218872 C-8.18093464 9.92439056 -7.46947335 8.13793547 -6.7578125 6.3515625 C-6.36215088 5.35455322 -5.96648926 4.35754395 -5.55883789 3.33032227 C-4.17388148 0.11329754 -4.17388148 0.11329754 0 0 Z " fill="#73D7E5" transform="translate(398.59765625,105.90234375)"/>
<path d="M0 0 C5.61 0 11.22 0 17 0 C17 9.9 17 19.8 17 30 C25.25 30 33.5 30 42 30 C42 20.1 42 10.2 42 0 C47.61 0 53.22 0 59 0 C59 25.08 59 50.16 59 76 C53.39 76 47.78 76 42 76 C42 65.77 42 55.54 42 45 C33.75 45 25.5 45 17 45 C17 55.23 17 65.46 17 76 C11.39 76 5.78 76 0 76 C0 50.92 0 25.84 0 0 Z " fill="#72D7E5" transform="translate(104,104)"/>
<path d="M0 0 C0.99 0.99 0.99 0.99 2 2 C1.63805683 5.86292072 0.21249765 8.89904299 -1.5625 12.3125 C-2.01753906 13.19550781 -2.47257812 14.07851562 -2.94140625 14.98828125 C-3.46541016 15.98408203 -3.46541016 15.98408203 -4 17 C-5.175625 16.505 -6.35125 16.01 -7.5625 15.5 C-15.28385274 12.94657797 -25.10131124 12.17549348 -32.625 15.6875 C-37.94574516 18.97689777 -41.97341936 23.02692021 -44 29 C-44.83977386 36.06886565 -45.00770288 42.40444387 -40.625 48.28125 C-35.38309652 53.82557099 -30.89430225 56.64002303 -23.23828125 57.203125 C-16.28867749 57.31446712 -10.51748901 56.42242954 -4 54 C-2.96455826 55.90881434 -1.94709915 57.82739204 -0.9375 59.75 C-0.36902344 60.81734375 0.19945313 61.8846875 0.78515625 62.984375 C2 66 2 66 1.984375 68.25390625 C0.54618569 70.80498015 -1.09174868 71.21153503 -3.8125 72.1875 C-4.68519531 72.51105469 -5.55789062 72.83460938 -6.45703125 73.16796875 C-16.4974668 76.45308822 -30.19558321 77.08881653 -39.80078125 72.328125 C-51.78434069 65.09116193 -59.4915453 57.5253641 -64 44 C-64.87726714 30.52460153 -63.74021845 20.73716966 -54.84375 10.03125 C-41.176396 -5.02600441 -18.44014338 -9.32213891 0 0 Z " fill="#73D7E5" transform="translate(93,107)"/>
<path d="M0 0 C1.34262065 0.29369827 2.67696283 0.6278958 4 1 C4.99 0.67 5.98 0.34 7 0 C7.99 0.66 8.98 1.32 10 2 C10.1875 5.125 10.1875 5.125 10 8 C10.33 7.34 10.66 6.68 11 6 C11.9075 6.350625 12.815 6.70125 13.75 7.0625 C16.87758436 7.96468779 18.05208081 8.13381507 21 7 C21.66 7.99 22.32 8.98 23 10 C22.505 6.04 22.505 6.04 22 2 C23.65 1.34 25.3 0.68 27 0 C27 0.66 27 1.32 27 2 C28.1446875 1.690625 28.1446875 1.690625 29.3125 1.375 C32 1 32 1 35 3 C35 3.99 35 4.98 35 6 C35.99 6 36.98 6 38 6 C38 7.98 38 9.96 38 12 C35.69 12.66 33.38 13.32 31 14 C32.32 14.33 33.64 14.66 35 15 C35 16.65 35 18.3 35 20 C35.99 19.67 36.98 19.34 38 19 C38.99 20.32 39.98 21.64 41 23 C40.01 23.99 39.02 24.98 38 26 C38.5775 25.71125 39.155 25.4225 39.75 25.125 C41.83333333 24.08333333 43.91666667 23.04166667 46 22 C49 24 49 24 49.51171875 26.1640625 C49.56972656 26.97617187 49.62773437 27.78828125 49.6875 28.625 C49.75324219 29.44226563 49.81898438 30.25953125 49.88671875 31.1015625 C49.94279297 32.04128906 49.94279297 32.04128906 50 33 C48.515 33.495 48.515 33.495 47 34 C47.495 35.98 47.495 35.98 48 38 C45.8125 38.75 45.8125 38.75 43 39 C40.1875 37.0625 40.1875 37.0625 38 35 C38.66 36.32 39.32 37.64 40 39 C39.34 39.391875 38.68 39.78375 38 40.1875 C35.70833333 41.85416667 35.70833333 41.85416667 35.75 44.6875 C35.8325 45.450625 35.915 46.21375 36 47 C34.35 47 32.7 47 31 47 C32.134375 47.144375 33.26875 47.28875 34.4375 47.4375 C38 48 38 48 39 49 C39.04063832 50.66617115 39.042721 52.33388095 39 54 C37.68 54 36.36 54 35 54 C35.495 55.98 35.495 55.98 36 58 C32.55166676 60.05257931 30.68338409 61.0632763 26.625 60.6875 C25.75875 60.460625 24.8925 60.23375 24 60 C24.33 57.03 24.66 54.06 25 51 C24.34 51 23.68 51 23 51 C23 52.65 23 54.3 23 56 C22.37351563 55.84402344 21.74703125 55.68804687 21.1015625 55.52734375 C20.28429687 55.33269531 19.46703125 55.13804688 18.625 54.9375 C17.81289062 54.74027344 17.00078125 54.54304688 16.1640625 54.33984375 C13.95838716 53.77890681 13.95838716 53.77890681 12 55 C11.67 54.34 11.34 53.68 11 53 C11 54.98 11 56.96 11 59 C10.05125 59.309375 9.1025 59.61875 8.125 59.9375 C5.13919592 60.87394742 5.13919592 60.87394742 3 62 C0.0625 60.5625 0.0625 60.5625 -3 58 C-3.82092015 55.0002855 -3.9867458 52.10148341 -4 49 C-2.02 48.34 -0.04 47.68 2 47 C0.68 46.67 -0.64 46.34 -2 46 C-2 44.35 -2 42.7 -2 41 C-3.65 40.34 -5.3 39.68 -7 39 C-6.67 37.68 -6.34 36.36 -6 35 C-7.32 36.32 -8.64 37.64 -10 39 C-13.65316671 37.75023244 -14.78065836 37.32901247 -17 34 C-17.07905064 31.66800612 -17.08798769 29.33167378 -17 27 C-16.01 26.67 -15.02 26.34 -14 26 C-14.33 25.01 -14.66 24.02 -15 23 C-13.35 22.34 -11.7 21.68 -10 21 C-7.525 22.98 -7.525 22.98 -5 25 C-5.66 23.68 -6.32 22.36 -7 21 C-5.68 20.67 -4.36 20.34 -3 20 C-3 18.02 -3 16.04 -3 14 C-0.03 14.495 -0.03 14.495 3 15 C3 14.34 3 13.68 3 13 C2.05125 13.020625 1.1025 13.04125 0.125 13.0625 C-3 13 -3 13 -5 12 C-5 10.02 -5 8.04 -5 6 C-4.01 6 -3.02 6 -2 6 C-2.33 4.68 -2.66 3.36 -3 2 C-2.01 1.34 -1.02 0.68 0 0 Z " fill="#7DDCE8" transform="translate(181,32)"/>
<path d="M0 0 C9.9 0 19.8 0 30 0 C30 21.78 30 43.56 30 66 C20.1 66 10.2 66 0 66 C0 44.22 0 22.44 0 0 Z " fill="#F78383" transform="translate(182,114)"/>
<path d="M0 0 C5.61 0 11.22 0 17 0 C17 20.13 17 40.26 17 61 C25.91 61 34.82 61 44 61 C44 65.95 44 70.9 44 76 C29.48 76 14.96 76 0 76 C0 50.92 0 25.84 0 0 Z " fill="#72D7E5" transform="translate(285,105)"/>
<path d="M0 0 C5.61 0 11.22 0 17 0 C17 20.13 17 40.26 17 61 C25.58 61 34.16 61 43 61 C43 65.95 43 70.9 43 76 C28.81 76 14.62 76 0 76 C0 50.92 0 25.84 0 0 Z " fill="#72D7E5" transform="translate(232,104)"/>
<path d="M0 0 C1.34262065 0.29369827 2.67696283 0.6278958 4 1 C4.99 0.67 5.98 0.34 7 0 C7.99 0.66 8.98 1.32 10 2 C10.1875 5.125 10.1875 5.125 10 8 C10.33 7.34 10.66 6.68 11 6 C12.32 6.33 13.64 6.66 15 7 C15.08117951 9.41734542 15.14056926 11.83194949 15.1875 14.25 C15.21263672 14.93191406 15.23777344 15.61382812 15.26367188 16.31640625 C15.31137459 19.59199289 15.21085076 21.65348556 13.48828125 24.484375 C12.99714844 24.98453125 12.50601563 25.4846875 12 26 C8.85262818 25.30058404 5.97411124 24.23921302 3 23 C4.45264038 23.8638129 5.9123163 24.71580454 7.375 25.5625 C8.18710938 26.03816406 8.99921875 26.51382813 9.8359375 27.00390625 C10.55007812 27.33261719 11.26421875 27.66132812 12 28 C12.66 27.67 13.32 27.34 14 27 C13.875 29.3125 13.875 29.3125 13 32 C10.5 33.4375 10.5 33.4375 7 35 C4.71936579 36.62730666 2.4716401 38.28639286 0.24609375 39.98828125 C-2 41 -2 41 -4.77734375 40.16796875 C-5.87755859 39.58982422 -5.87755859 39.58982422 -7 39 C-6.67 37.68 -6.34 36.36 -6 35 C-7.32 36.32 -8.64 37.64 -10 39 C-13.65316671 37.75023244 -14.78065836 37.32901247 -17 34 C-17.07905064 31.66800612 -17.08798769 29.33167378 -17 27 C-16.01 26.67 -15.02 26.34 -14 26 C-14.33 25.01 -14.66 24.02 -15 23 C-13.35 22.34 -11.7 21.68 -10 21 C-7.525 22.98 -7.525 22.98 -5 25 C-5.66 23.68 -6.32 22.36 -7 21 C-5.68 20.67 -4.36 20.34 -3 20 C-3 18.02 -3 16.04 -3 14 C-0.03 14.495 -0.03 14.495 3 15 C3 14.34 3 13.68 3 13 C2.05125 13.020625 1.1025 13.04125 0.125 13.0625 C-3 13 -3 13 -5 12 C-5 10.02 -5 8.04 -5 6 C-4.01 6 -3.02 6 -2 6 C-2.33 4.68 -2.66 3.36 -3 2 C-2.01 1.34 -1.02 0.68 0 0 Z " fill="#20BBC3" transform="translate(181,32)"/>
<path d="M0 0 C1.32 1.32 2.64 2.64 4 4 C3.01 4.99 2.02 5.98 1 7 C1.5775 6.71125 2.155 6.4225 2.75 6.125 C4.83333333 5.08333333 6.91666667 4.04166667 9 3 C12 5 12 5 12.51171875 7.1640625 C12.56972656 7.97617187 12.62773437 8.78828125 12.6875 9.625 C12.78611328 10.85089844 12.78611328 10.85089844 12.88671875 12.1015625 C12.94279297 13.04128906 12.94279297 13.04128906 13 14 C12.01 14.33 11.02 14.66 10 15 C10.33 16.32 10.66 17.64 11 19 C8.8125 19.75 8.8125 19.75 6 20 C3.1875 18.0625 3.1875 18.0625 1 16 C1.66 17.32 2.32 18.64 3 20 C2.34 20.391875 1.68 20.78375 1 21.1875 C-1.29166667 22.85416667 -1.29166667 22.85416667 -1.25 25.6875 C-1.12625 26.8321875 -1.12625 26.8321875 -1 28 C-2.65 28 -4.3 28 -6 28 C-4.2984375 28.2165625 -4.2984375 28.2165625 -2.5625 28.4375 C1 29 1 29 2 30 C2.04063832 31.66617115 2.042721 33.33388095 2 35 C0.68 35 -0.64 35 -2 35 C-1.67 36.32 -1.34 37.64 -1 39 C-4.44833324 41.05257931 -6.31661591 42.0632763 -10.375 41.6875 C-11.24125 41.460625 -12.1075 41.23375 -13 41 C-12.67 38.03 -12.34 35.06 -12 32 C-12.66 32 -13.32 32 -14 32 C-14 33.65 -14 35.3 -14 37 C-19.875 35.125 -19.875 35.125 -21 34 C-21.07271741 31.64686445 -21.08370868 29.29166332 -21.0625 26.9375 C-21.05347656 25.64714844 -21.04445312 24.35679688 -21.03515625 23.02734375 C-21.02355469 22.02832031 -21.01195312 21.02929688 -21 20 C-20.34 20.33 -19.68 20.66 -19 21 C-18.5859375 23.06640625 -18.5859375 23.06640625 -18.375 25.5625 C-18.30023438 26.38878906 -18.22546875 27.21507813 -18.1484375 28.06640625 C-18.09945312 28.70449219 -18.05046875 29.34257813 -18 30 C-16.82141137 28.9296491 -15.6574639 27.84316035 -14.5 26.75 C-13.8503125 26.14671875 -13.200625 25.5434375 -12.53125 24.921875 C-10.58457138 22.88814492 -10.58457138 22.88814492 -11 19 C-12.4166747 17.2488427 -12.4166747 17.2488427 -14 16 C-12.07469586 12.00129139 -10.15703281 8.15703281 -7 5 C-8.98 5.66 -10.96 6.32 -13 7 C-10.59231297 4.20836288 -8.23853384 3.10282443 -4.8125 1.8125 C-3.91144531 1.46832031 -3.01039063 1.12414063 -2.08203125 0.76953125 C-1.39496094 0.51558594 -0.70789063 0.26164062 0 0 Z " fill="#AFE2F4" transform="translate(218,51)"/>
<path d="M0 0 C15.84 0 31.68 0 48 0 C48 0.99 48 1.98 48 3 C51.3 3 54.6 3 58 3 C58 3.99 58 4.98 58 6 C35.56 6 13.12 6 -10 6 C-9.67 5.01 -9.34 4.02 -9 3 C-6.03 3 -3.06 3 0 3 C0 2.01 0 1.02 0 0 Z " fill="#F37373" transform="translate(173,183)"/>
<path d="M0 0 C5.42700017 0.38764287 8.28762789 2.02862518 12 6 C12.875 9.8125 12.875 9.8125 13 13 C11.35 13 9.7 13 8 13 C9.7015625 13.2165625 9.7015625 13.2165625 11.4375 13.4375 C15 14 15 14 16 15 C16.04063832 16.66617115 16.042721 18.33388095 16 20 C14.68 20 13.36 20 12 20 C12.33 21.32 12.66 22.64 13 24 C9.55166676 26.05257931 7.68338409 27.0632763 3.625 26.6875 C2.75875 26.460625 1.8925 26.23375 1 26 C1.495 21.545 1.495 21.545 2 17 C1.34 17 0.68 17 0 17 C0 18.65 0 20.3 0 22 C-5.875 20.125 -5.875 20.125 -7 19 C-7.07271741 16.64686445 -7.08370868 14.29166332 -7.0625 11.9375 C-7.05347656 10.64714844 -7.04445312 9.35679688 -7.03515625 8.02734375 C-7.02355469 7.02832031 -7.01195312 6.02929688 -7 5 C-6.01 5.495 -6.01 5.495 -5 6 C-4.5859375 8.06640625 -4.5859375 8.06640625 -4.375 10.5625 C-4.30023438 11.38878906 -4.22546875 12.21507813 -4.1484375 13.06640625 C-4.07496094 14.02353516 -4.07496094 14.02353516 -4 15 C-2.82141137 13.9296491 -1.6574639 12.84316035 -0.5 11.75 C0.1496875 11.14671875 0.799375 10.5434375 1.46875 9.921875 C3.41542862 7.88814492 3.41542862 7.88814492 3 4 C1.56249809 2.31201173 1.56249809 2.31201173 0 1 C0 0.67 0 0.34 0 0 Z " fill="#B4E4F5" transform="translate(204,66)"/>
<path d="M0 0 C0.66 0.99 1.32 1.98 2 3 C1.566875 3.7734375 1.566875 3.7734375 1.125 4.5625 C0.01159477 6.974878 -0.66811421 9.35918889 -1.359375 11.91796875 C-2.62932083 16.04529269 -4.34772481 20.01368559 -6 24 C-6.99 24 -7.98 24 -9 24 C-9 24.66 -9 25.32 -9 26 C-11.475 25.01 -11.475 25.01 -14 24 C-14.33 21.03 -14.66 18.06 -15 15 C-13.02 14.34 -11.04 13.68 -9 13 C-10.32 12.67 -11.64 12.34 -13 12 C-13 10.35 -13 8.7 -13 7 C-8.71 4.69 -4.42 2.38 0 0 Z " fill="#65D7E2" transform="translate(192,66)"/>
<path d="M0 0 C0.66 0 1.32 0 2 0 C3.17780436 2.91229133 4.34025075 5.83047678 5.5 8.75 C5.83386719 9.575 6.16773438 10.4 6.51171875 11.25 C6.98544922 12.44882813 6.98544922 12.44882813 7.46875 13.671875 C7.76201172 14.4050293 8.05527344 15.13818359 8.35742188 15.89355469 C9 18 9 18 9 22 C3.72 22 -1.56 22 -7 22 C-5.875 15.25 -5.875 15.25 -4.58984375 11.9140625 C-4.32236328 11.21152344 -4.05488281 10.50898438 -3.77929688 9.78515625 C-3.50150391 9.07230469 -3.22371094 8.35945312 -2.9375 7.625 C-2.65583984 6.88894531 -2.37417969 6.15289062 -2.08398438 5.39453125 C-1.39433382 3.5944264 -0.69786068 1.7969379 0 0 Z " fill="#F4FCFD" transform="translate(402,130)"/>
<path d="M0 0 C0.99 0.33 1.98 0.66 3 1 C3 4.96 3 8.92 3 13 C5.31 13 7.62 13 10 13 C10 14.32 10 15.64 10 17 C4.39 17 -1.22 17 -7 17 C-7 16.01 -7 15.02 -7 14 C-4.69 14 -2.38 14 0 14 C0 9.38 0 4.76 0 0 Z " fill="#F58E8E" transform="translate(196,94)"/>
<path d="M0 0 C0.94875 0.350625 1.8975 0.70125 2.875 1.0625 C5.87060172 2.35026777 5.87060172 2.35026777 8 1 C7.875 3.3125 7.875 3.3125 7 6 C4.5 7.4375 4.5 7.4375 1 9 C-1.28063421 10.62730666 -3.5283599 12.28639286 -5.75390625 13.98828125 C-8 15 -8 15 -10.77734375 14.16796875 C-11.87755859 13.58982422 -11.87755859 13.58982422 -13 13 C-11.58970126 10.17940253 -9.92108419 10.01898286 -7 9 C-6.278125 8.855625 -5.55625 8.71125 -4.8125 8.5625 C-2.60152755 8.08506074 -2.60152755 8.08506074 -1 5 C-0.61500109 3.34450469 -0.27206865 1.6777567 0 0 Z " fill="#48CDD5" transform="translate(187,58)"/>
<path d="M0 0 C1.32 0 2.64 0 4 0 C4 1.65 4 3.3 4 5 C1.69 6.32 -0.62 7.64 -3 9 C-1.68 8.67 -0.36 8.34 1 8 C0.21625 8.7425 -0.5675 9.485 -1.375 10.25 C-3.56504531 12.54433318 -4.82731386 14.12158858 -6 17 C-6.99 16.67 -7.98 16.34 -9 16 C-8.73755916 10.66370285 -8.73755916 10.66370285 -8 8 C-5.625 6.3125 -5.625 6.3125 -3 5 C-2.484375 4.113125 -1.96875 3.22625 -1.4375 2.3125 C-0.7259375 1.1678125 -0.7259375 1.1678125 0 0 Z " fill="#91DFED" transform="translate(212,47)"/>
<path d="M0 0 C0.99 0.33 1.98 0.66 3 1 C3 1.99 3 2.98 3 4 C3.99 4 4.98 4 6 4 C6 5.98 6 7.96 6 10 C4.88625 10.28875 3.7725 10.5775 2.625 10.875 C-1.00291092 11.69241329 -1.00291092 11.69241329 -3 14 C-3 13.34 -3 12.68 -3 12 C-3.66 11.67 -4.32 11.34 -5 11 C-4.34 10.01 -3.68 9.02 -3 8 C-2.31744011 5.67126625 -1.64949225 3.33817209 -1 1 C-0.67 0.67 -0.34 0.34 0 0 Z " fill="#8FDEEB" transform="translate(213,34)"/>
<path d="M0 0 C0.33 0 0.66 0 1 0 C1 5.28 1 10.56 1 16 C1.99 16 2.98 16 4 16 C3.75 17.875 3.75 17.875 3 20 C0.9375 21.25 0.9375 21.25 -1 22 C-1.33 21.34 -1.66 20.68 -2 20 C-2.66 20.33 -3.32 20.66 -4 21 C-4 20.34 -4 19.68 -4 19 C-4.70125 18.9175 -5.4025 18.835 -6.125 18.75 C-9.65272947 17.82972275 -12.06111614 16.11873023 -15 14 C-14.34 13.67 -13.68 13.34 -13 13 C-10.6171875 13.99609375 -10.6171875 13.99609375 -7.875 15.4375 C-6.50988281 16.14712891 -6.50988281 16.14712891 -5.1171875 16.87109375 C-4.41851562 17.24363281 -3.71984375 17.61617187 -3 18 C-0.73150334 14.34827367 -0.6104049 10.9872882 -0.375 6.75 C-0.30023438 5.48671875 -0.22546875 4.2234375 -0.1484375 2.921875 C-0.09945312 1.95765625 -0.05046875 0.9934375 0 0 Z " fill="#7FDCE3" transform="translate(196,40)"/>
<path d="M0 0 C-0.54723683 3.37462715 -1.0549 5.08235 -3 8 C-4.9453125 8.29296875 -4.9453125 8.29296875 -7.125 8.1875 C-9.043125 8.0946875 -9.043125 8.0946875 -11 8 C-11 6.35 -11 4.7 -11 3 C-9.73581754 2.30034557 -8.46334598 1.61565237 -7.1875 0.9375 C-6.47980469 0.55464844 -5.77210938 0.17179687 -5.04296875 -0.22265625 C-3 -1 -3 -1 0 0 Z " fill="#51D1DB" transform="translate(190,70)"/>
<path d="M0 0 C3 1 3 1 4.25 2.6875 C5.23749311 5.73227042 4.7002014 7.91911384 4 11 C3.34 10.34 2.68 9.68 2 9 C1.01 10.32 0.02 11.64 -1 13 C-2.26237731 10.47524538 -2.09856404 8.68799534 -2.0625 5.875 C-2.05347656 4.96492188 -2.04445312 4.05484375 -2.03515625 3.1171875 C-2.02355469 2.41851562 -2.01195312 1.71984375 -2 1 C-1.34 0.67 -0.68 0.34 0 0 Z " fill="#5DD3DE" transform="translate(200,39)"/>
<path d="M0 0 C0.66 0.33 1.32 0.66 2 1 C1.84700073 6.04897583 -0.97351091 8.34544389 -4.40625 11.64453125 C-6 13 -6 13 -7 13 C-7.2253459 9.69492676 -7.34500438 7.60786486 -5.6875 4.6875 C-4 3 -4 3 -1 2 C-0.67 1.34 -0.34 0.68 0 0 Z " fill="#9BE2F0" transform="translate(206,69)"/>
<path d="M0 0 C0.66 0 1.32 0 2 0 C2.4726477 8.19256018 2.4726477 8.19256018 0.5 11.5625 C0.005 12.036875 -0.49 12.51125 -1 13 C-2.32 12.67 -3.64 12.34 -5 12 C-4.34 10.02 -3.68 8.04 -3 6 C-2.34 6 -1.68 6 -1 6 C-0.67 4.02 -0.34 2.04 0 0 Z " fill="#4BCED6" transform="translate(194,45)"/>
<path d="M0 0 C0.66 0 1.32 0 2 0 C2 0.99 2 1.98 2 3 C3.32 2.34 4.64 1.68 6 1 C5.67 2.65 5.34 4.3 5 6 C4.01 6 3.02 6 2 6 C2 6.66 2 7.32 2 8 C-0.4375 7.25 -0.4375 7.25 -3 6 C-3.8125 3.875 -3.8125 3.875 -4 2 C-2.68 2 -1.36 2 0 2 C0 1.34 0 0.68 0 0 Z " fill="#6CD9E5" transform="translate(181,84)"/>
<path d="M0 0 C1.125 1.625 1.125 1.625 2 4 C1.16933916 7.46108684 0.52986895 9.47013105 -2 12 C-2.66 8.7 -3.32 5.4 -4 2 C-2.68 1.34 -1.36 0.68 0 0 Z " fill="#67D3DF" transform="translate(207,32)"/>
<path d="M0 0 C-0.33 1.32 -0.66 2.64 -1 4 C-1.99 4 -2.98 4 -4 4 C-4 4.66 -4 5.32 -4 6 C-5.32 6 -6.64 6 -8 6 C-8 4.35 -8 2.7 -8 1 C-2.25 -1.125 -2.25 -1.125 0 0 Z " fill="#4DCFDA" transform="translate(185,80)"/>
<path d="M0 0 C-0.1875 1.875 -0.1875 1.875 -1 4 C-3.375 5.375 -3.375 5.375 -6 6 C-6.99 5.34 -7.98 4.68 -9 4 C-6.94469992 -0.11060016 -4.15744224 -0.22472661 0 0 Z " fill="#34C5CD" transform="translate(183,67)"/>
<path d="M0 0 C5.62917348 0.40208382 8.00386479 2.28930302 12 6 C10 7 10 7 7.87109375 6.328125 C7.06800781 5.97234375 6.26492187 5.6165625 5.4375 5.25 C4.22900391 4.73179688 4.22900391 4.73179688 2.99609375 4.203125 C1 3 1 3 0 0 Z " fill="#F6FCFD" transform="translate(204,66)"/>
<path d="M0 0 C0.99 0.33 1.98 0.66 3 1 C1.8141763 4.37503669 0.72426311 6.64722731 -2 9 C-2 6.36 -2 3.72 -2 1 C-1.34 0.67 -0.68 0.34 0 0 Z " fill="#4CCDD8" transform="translate(200,39)"/>
<path d="M0 0 C-1.875 4.75 -1.875 4.75 -3 7 C-3.99 7 -4.98 7 -6 7 C-6 5.35 -6 3.7 -6 2 C-2.25 0 -2.25 0 0 0 Z " fill="#42CBD4" transform="translate(185,71)"/>
<path d="M0 0 C0.66 0 1.32 0 2 0 C1.39009109 3.55780196 0.4216319 6.6828589 -1 10 C-1.99 10 -2.98 10 -4 10 C-3.67 8.68 -3.34 7.36 -3 6 C-2.34 6 -1.68 6 -1 6 C-0.67 4.02 -0.34 2.04 0 0 Z " fill="#3CC9D2" transform="translate(194,45)"/>
<path d="M0 0 C0.66 0 1.32 0 2 0 C2 3.76687864 1.76462683 4.91190305 0 8 C-0.66 8 -1.32 8 -2 8 C-1.125 1.125 -1.125 1.125 0 0 Z " fill="#84DDE9" transform="translate(205,54)"/>
<path d="M0 0 C1.98 0 3.96 0 6 0 C6 0.99 6 1.98 6 3 C4.02 3 2.04 3 0 3 C0 2.01 0 1.02 0 0 Z " fill="#E4D9D9" transform="translate(194,158)"/>
<path d="M0 0 C1.98 0 3.96 0 6 0 C6 0.99 6 1.98 6 3 C4.02 3 2.04 3 0 3 C0 2.01 0 1.02 0 0 Z " fill="#EED3D3" transform="translate(194,147)"/>
<path d="M0 0 C1.98 0 3.96 0 6 0 C6 0.99 6 1.98 6 3 C4.02 3 2.04 3 0 3 C0 2.01 0 1.02 0 0 Z " fill="#E5D6D6" transform="translate(203,136)"/>
<path d="M0 0 C1.98 0 3.96 0 6 0 C6 0.99 6 1.98 6 3 C4.02 3 2.04 3 0 3 C0 2.01 0 1.02 0 0 Z " fill="#E1D6D6" transform="translate(194,136)"/>
<path d="M0 0 C1.98 0 3.96 0 6 0 C6 0.99 6 1.98 6 3 C4.02 3 2.04 3 0 3 C0 2.01 0 1.02 0 0 Z " fill="#E0D5D5" transform="translate(194,131)"/>
<path d="M0 0 C1.98 0 3.96 0 6 0 C6 0.99 6 1.98 6 3 C4.02 3 2.04 3 0 3 C0 2.01 0 1.02 0 0 Z " fill="#EDDADA" transform="translate(194,125)"/>
<path d="M0 0 C1.98 0 3.96 0 6 0 C6 0.99 6 1.98 6 3 C4.02 3 2.04 3 0 3 C0 2.01 0 1.02 0 0 Z " fill="#F0DADA" transform="translate(185,125)"/>
<path d="M0 0 C1.98 0 3.96 0 6 0 C6 0.99 6 1.98 6 3 C4.02 3 2.04 3 0 3 C0 2.01 0 1.02 0 0 Z " fill="#EDD4D4" transform="translate(194,120)"/>
<path d="M0 0 C1.98 0 3.96 0 6 0 C6 0.99 6 1.98 6 3 C4.02 3 2.04 3 0 3 C0 2.01 0 1.02 0 0 Z " fill="#F1D5D5" transform="translate(185,120)"/>
<path d="M0 0 C0.625 1.875 0.625 1.875 1 4 C0.34 4.66 -0.32 5.32 -1 6 C-1.99 6 -2.98 6 -4 6 C-2.84826645 3.53199953 -1.95216435 1.95216435 0 0 Z " fill="#54D0DA" transform="translate(194,59)"/>
</svg>
